<?xml version="1.0" standalone="no"?>
<!DOCTYPE svg PUBLIC "-//W3C//DTD SVG 20010904//EN"
 "http://www.w3.org/TR/2001/REC-SVG-20010904/DTD/svg10.dtd">
<svg version="1.0" xmlns="http://www.w3.org/2000/svg"
 width="1058.000000pt" height="1058.000000pt" viewBox="0 0 1058.000000 1058.000000"
 preserveAspectRatio="xMidYMid meet">
<metadata>
Created by potrace 1.11, written by Peter Selinger 2001-2013
</metadata>
<g transform="translate(0.000000,1058.000000) scale(0.100000,-0.100000)"
fill="#000000" stroke="none">
<path d="M5140 10540 c-41 -16 -277 -100 -525 -188 -247 -88 -576 -205 -730
-260 -154 -56 -541 -193 -860 -307 -319 -113 -706 -251 -860 -307 -154 -55
-424 -151 -600 -213 -176 -62 -495 -176 -710 -253 -214 -76 -421 -150 -459
-163 -37 -13 -70 -29 -73 -35 -2 -7 30 -304 71 -662 42 -357 105 -907 141
-1223 36 -316 115 -999 176 -1519 60 -520 134 -1159 164 -1420 153 -1338 190
-1654 200 -1666 5 -7 390 -224 855 -482 465 -258 1398 -775 2073 -1150 l1228
-682 187 104 c103 57 360 199 572 316 212 117 504 279 650 360 146 81 443 245
660 365 217 120 494 273 615 340 121 67 398 220 615 340 677 374 915 506 922
513 6 6 166 1250 218 1692 11 96 74 598 140 1115 66 517 187 1482 270 2145 83
663 161 1282 173 1377 11 95 19 174 17 176 -5 3 -183 64 -1175 402 -264 90
-759 258 -1100 375 -341 116 -838 285 -1105 376 -267 91 -703 240 -970 331
-267 91 -530 180 -584 199 -55 19 -105 33 -110 33 -6 -1 -45 -14 -86 -29z
m-3373 -1847 c16 -21 42 -60 58 -88 41 -73 139 -218 209 -310 68 -89 273 -319
364 -409 l61 -59 68 31 c149 69 308 79 447 28 125 -45 161 -93 117 -154 -10
-15 -24 -50 -31 -79 l-12 -52 50 -58 c73 -85 158 -217 193 -301 37 -89 69
-211 69 -262 0 -36 8 -45 208 -226 114 -104 216 -196 226 -204 19 -15 19 -12
13 120 -18 363 -28 1033 -18 1207 14 243 27 273 105 243 20 -7 35 -5 60 7 41
19 60 13 80 -24 51 -100 89 -533 118 -1341 7 -194 15 -357 18 -362 4 -6 246
-14 605 -20 330 -6 760 -14 956 -19 196 -4 372 -5 392 -3 36 4 37 5 37 46 0
65 37 646 60 931 27 356 55 584 73 602 44 44 79 -382 92 -1122 3 -181 8 -363
11 -402 l6 -73 121 0 c66 0 336 -7 599 -16 263 -8 490 -14 504 -12 25 3 18 10
-72 84 -54 45 -137 115 -183 157 l-84 77 -91 -51 c-208 -115 -336 -163 -466
-175 -71 -7 -140 13 -140 39 0 8 51 48 113 89 125 84 366 273 374 294 3 8 -20
43 -54 81 -256 293 -423 595 -426 770 -1 35 4 58 13 66 13 13 110 41 182 54
41 8 80 -37 182 -212 81 -136 288 -456 334 -513 l18 -23 130 118 c350 320 516
448 626 483 50 15 71 2 104 -63 15 -29 35 -64 45 -79 38 -53 19 -99 -83 -201
-83 -82 -295 -261 -480 -404 -89 -69 -145 -119 -141 -126 4 -6 58 -83 121
-171 62 -88 132 -190 153 -227 l40 -67 177 -6 c511 -19 762 -55 915 -132 26
-14 47 -28 47 -32 0 -4 -179 -7 -397 -7 -285 0 -463 -5 -628 -18 -331 -25
-524 -34 -1015 -47 -239 -6 -459 -13 -488 -16 l-54 -6 7 -231 c19 -711 26
-927 35 -1162 6 -143 13 -270 16 -282 2 -13 14 -25 27 -27 12 -3 319 -17 682
-31 1372 -54 1895 -100 1895 -169 0 -8 -8 -31 -17 -50 -13 -29 -14 -40 -5 -61
17 -38 15 -69 -7 -82 -51 -32 -154 -38 -606 -37 -454 1 -675 7 -1438 45 -230
11 -425 19 -433 17 -8 -2 93 -104 242 -246 l256 -243 46 34 c208 152 455 179
667 75 105 -51 120 -77 81 -135 -14 -21 -26 -52 -26 -69 0 -28 7 -35 88 -83
207 -122 328 -271 368 -450 29 -131 0 -282 -76 -402 -17 -25 -30 -49 -30 -53
0 -4 70 -82 156 -174 86 -92 168 -181 181 -199 73 -95 -37 -30 -276 161 -79
64 -147 116 -151 116 -4 0 -29 -17 -56 -38 -167 -132 -413 -221 -692 -252
-216 -24 -308 -1 -410 101 -215 215 -240 729 -54 1109 20 41 37 78 37 81 0 3
-89 83 -197 178 -196 170 -198 171 -198 138 0 -71 64 -593 121 -987 87 -601
88 -637 11 -627 -27 3 -48 -2 -79 -19 -23 -13 -48 -21 -57 -18 -68 26 -183
440 -261 936 -35 225 -73 565 -92 842 -16 222 -19 239 -38 247 -11 4 -146 15
-300 24 -154 9 -577 36 -939 60 -363 25 -662 42 -665 39 -3 -3 -7 -35 -8 -72
-2 -37 -17 -341 -34 -677 -16 -335 -36 -809 -43 -1053 -9 -301 -17 -447 -24
-454 -35 -35 -94 261 -126 632 -19 216 -24 387 -36 1084 -5 302 -13 553 -18
558 -4 4 -125 17 -268 28 -1055 81 -1755 158 -1835 200 -84 46 121 55 1169 54
l922 -1 0 41 c1 63 -70 1487 -76 1522 l-4 31 -718 6 c-744 7 -1036 17 -1183
41 -132 21 -145 33 -113 99 15 31 15 36 0 65 -9 17 -16 37 -16 45 0 42 90 68
300 86 156 14 743 31 1080 31 l255 1 -46 42 c-25 23 -80 73 -122 111 l-77 68
-48 -31 c-122 -78 -298 -121 -495 -121 -191 0 -289 39 -397 157 -103 113 -153
263 -153 463 -1 148 20 247 82 390 l40 93 -103 116 c-293 329 -476 613 -535
831 -21 74 -28 175 -13 184 4 2 27 -1 50 -7 40 -11 44 -10 69 16 15 15 33 27
39 27 7 0 25 -17 41 -37z m2754 -1000 c23 -21 69 -74 102 -118 34 -44 101
-130 149 -192 l89 -112 115 75 c198 128 428 255 516 283 52 17 73 7 112 -52
19 -29 46 -69 62 -89 l27 -38 -17 -44 c-30 -79 -189 -189 -461 -317 -74 -35
-135 -67 -135 -72 0 -4 61 -78 136 -165 161 -187 216 -265 212 -301 -3 -23 -7
-26 -40 -24 -87 5 -292 117 -494 269 l-121 91 -174 -88 c-154 -79 -175 -87
-188 -74 -13 13 -13 22 -3 62 17 64 51 120 123 204 l60 69 -69 78 c-195 217
-314 445 -258 491 43 36 164 100 188 100 19 1 42 -12 69 -36z m-1016 -1838
c14 -13 25 -30 25 -38 0 -7 16 -36 35 -63 40 -57 43 -74 15 -119 -54 -88 -257
-209 -654 -392 -78 -35 -145 -68 -150 -73 -6 -6 29 -51 86 -112 126 -136 194
-227 237 -317 29 -63 35 -86 35 -145 1 -101 -15 -100 -130 4 -49 44 -145 120
-213 168 -68 48 -174 122 -234 165 -91 64 -115 77 -136 72 -50 -12 -467 -225
-571 -291 -160 -102 -158 -100 -171 -87 -37 37 53 184 197 324 54 52 152 135
217 183 64 49 117 92 117 96 0 4 -7 13 -15 20 -31 26 -119 177 -146 252 -21
56 -29 97 -29 143 0 92 11 101 139 110 121 9 123 8 198 -114 53 -88 152 -221
163 -221 4 0 68 34 141 76 192 110 643 337 719 362 84 27 96 27 125 -3z m4288
-112 c73 -17 147 -60 180 -105 l20 -27 -26 -39 -25 -39 31 -31 c27 -27 32 -40
35 -94 7 -119 -60 -243 -217 -399 -117 -117 -240 -206 -387 -280 -144 -73
-224 -93 -352 -87 -84 3 -104 7 -144 31 -61 35 -123 107 -142 164 -73 214 87
536 369 748 210 157 431 210 658 158z m-5231 -1924 c13 -5 38 -31 55 -57 17
-26 56 -85 87 -132 30 -47 68 -100 84 -118 l28 -34 49 29 c293 172 604 297
789 319 60 7 132 -10 144 -34 4 -9 8 -64 7 -121 -1 -102 -2 -104 -31 -130 -16
-15 -75 -46 -129 -69 -55 -22 -183 -75 -284 -117 -158 -65 -277 -119 -290
-131 -2 -2 53 -62 122 -134 213 -221 287 -321 287 -387 0 -30 -3 -33 -30 -33
-56 0 -368 172 -595 327 l-109 75 -86 -42 c-150 -74 -321 -170 -473 -267 -84
-53 -155 -92 -163 -89 -19 7 -18 47 3 93 55 120 190 271 375 419 l118 94 -56
72 c-129 167 -186 367 -129 454 14 23 21 24 110 24 52 0 105 -5 117 -11z
m2678 -150 c19 -12 58 -41 85 -64 28 -23 69 -52 91 -63 55 -28 101 -68 120
-104 14 -27 14 -31 -1 -48 -15 -17 -14 -23 24 -99 67 -132 93 -222 98 -341 10
-191 -30 -296 -160 -425 -234 -232 -637 -407 -864 -375 -200 28 -386 233 -429
470 -70 388 225 817 663 966 63 22 103 28 206 32 113 4 127 7 121 21 -23 57
-12 65 46 30z"/>
<path d="M2763 7569 c-18 -5 -33 -14 -33 -20 0 -15 349 -363 356 -356 10 10
-33 111 -109 255 l-70 132 -56 -1 c-31 0 -71 -5 -88 -10z"/>
<path d="M2450 7183 c-22 -88 -23 -104 -12 -185 13 -107 44 -161 112 -195 39
-20 60 -23 165 -23 115 0 231 13 247 28 4 4 -30 40 -75 79 -45 39 -154 144
-242 232 -88 89 -162 161 -166 161 -3 0 -17 -43 -29 -97z"/>
<path d="M5832 6040 l-203 -5 55 -71 c78 -100 151 -225 178 -302 32 -93 32
-254 0 -325 -48 -105 -138 -210 -297 -344 l-50 -42 90 -88 c50 -49 185 -177
300 -286 l210 -197 6 687 c3 379 10 754 14 836 l8 147 -54 -2 c-30 -1 -145 -5
-257 -8z"/>
<path d="M4833 6030 c-248 -3 -454 -8 -457 -11 -6 -6 275 -271 294 -277 5 -2
44 21 87 52 91 63 191 115 283 147 54 19 93 23 225 27 166 4 253 -7 278 -36 7
-10 12 -52 13 -113 1 -82 -1 -101 -16 -114 -21 -19 -91 -39 -211 -60 -47 -8
-110 -22 -140 -31 -56 -17 -187 -81 -227 -112 l-23 -18 177 -164 c97 -91 180
-166 184 -168 14 -6 255 162 305 213 120 119 115 212 -27 530 l-63 140 -115 0
c-63 1 -318 -2 -567 -5z"/>
<path d="M4195 5235 c3 -264 8 -557 11 -651 l6 -172 212 -6 c116 -3 382 -11
591 -16 209 -5 447 -13 529 -16 94 -4 147 -3 145 3 -2 5 -101 95 -220 200
l-215 191 -110 -54 c-163 -80 -298 -102 -428 -68 -221 57 -359 267 -343 521 5
74 14 114 47 200 22 59 37 110 33 114 -64 55 -215 189 -236 208 l-28 26 6
-480z"/>
<path d="M4721 5188 c-32 -92 -2 -181 73 -212 42 -18 53 -19 118 -8 40 7 74
15 77 17 2 3 -4 14 -15 26 -21 24 -212 191 -231 202 -7 4 -15 -5 -22 -25z"/>
<path d="M7498 3320 c-65 -10 -151 -44 -170 -68 -11 -13 34 -61 317 -338 371
-363 339 -343 391 -237 24 47 26 62 22 132 -4 61 -11 92 -34 137 -39 79 -165
209 -292 301 -112 82 -133 88 -234 73z"/>
<path d="M7159 3024 c-11 -25 -32 -89 -46 -142 -44 -172 -31 -424 26 -502 17
-24 24 -25 127 -28 183 -5 397 39 537 109 31 16 57 31 57 33 0 3 -60 55 -132
117 -73 62 -224 191 -334 286 -111 95 -205 173 -208 173 -4 0 -16 -21 -27 -46z"/>
<path d="M7885 5430 c-4 -6 -55 -10 -119 -10 -176 0 -292 -36 -431 -135 -113
-80 -241 -232 -260 -308 -7 -27 -7 -27 48 -27 155 0 459 144 658 312 54 45
112 118 123 156 7 22 -7 31 -19 12z"/>
<path d="M5090 3270 c-307 -38 -601 -361 -552 -606 14 -67 65 -150 111 -177
83 -49 286 3 539 138 122 65 198 127 231 190 23 45 26 61 26 160 0 120 -27
250 -55 265 -45 23 -216 41 -300 30z"/>
</g>
</svg>
