<?xml version="1.0" encoding="UTF-8"?>
<svg width="997px" height="1058px" viewBox="0 0 997 1058" version="1.1" xmlns="http://www.w3.org/2000/svg" xmlns:xlink="http://www.w3.org/1999/xlink">
    <!-- Generator: Sketch 48.1 (47250) - http://www.bohemiancoding.com/sketch -->
    <title>angular-tic-tac-toe</title>
    <desc>Created with Sketch.</desc>
    <defs></defs>
    <g id="Page-1" stroke="none" stroke-width="1" fill="none" fill-rule="evenodd">
        <g id="angular-tic-tac-toe" transform="translate(0.000000, -2.000000)" fill-rule="nonzero">
            <g id="angular">
                <polygon id="Shape" fill="#333333" points="0.390625 177.820312 491.828125 2.72265625 996.5 174.707031 914.785156 824.902344 491.828125 1059.14453 75.4882812 828.015625"></polygon>
                <polygon id="Shape" fill="#222222" points="996.5 174.707031 491.828125 2.72265625 491.828125 1059.14453 914.785156 825.292969"></polygon>
            </g>
            <g id="tic-tac-toe" transform="translate(125.000000, 187.000000)" fill="#FFFFFF">
                <path d="M251.976616,685.217469 C248.616626,678.190911 244.333968,653.180542 242.08292,627.4392 C239.877255,602.216994 239.085586,580.434127 238.578229,531.004628 C238.149332,489.221413 237.428501,458.458468 236.863717,457.834095 C236.749183,457.707566 234.371005,457.464021 231.578825,457.292652 C228.786645,457.121283 224.800284,456.845492 222.720237,456.679646 C220.640189,456.5138 217.105563,456.242013 214.865511,456.075553 C208.587404,455.608726 190.887653,454.253732 186.501225,453.903922 C182.164341,453.558117 130.451133,449.15713 123.517971,448.543817 C121.117916,448.33129 112.150438,447.444962 103.590242,446.573669 C95.0300456,445.702375 86.5862158,444.85535 84.8261755,444.691344 C76.6651159,443.930318 64.4986991,442.607262 64.0134517,442.427901 C63.7801954,442.341595 62.1492926,442.124773 60.3892523,441.946041 C56.0032609,441.500415 48.769408,440.543122 45.2616331,439.943631 C43.6615965,439.670294 41.0433547,439.253846 39.4433181,439.018293 C31.4343783,437.839576 26.1673195,436.555224 24.6432119,435.409366 L23.7942034,434.771171 L24.4276724,434.229728 C25.5584619,433.262925 29.1763775,432.719334 39.588776,431.950929 C60.9045805,430.378176 113.374291,429.892634 175.300969,430.695126 C196.74146,430.973065 214.676416,431.261451 215.156427,431.335469 C215.636438,431.409778 220.480185,431.503156 225.92031,431.543071 L235.811445,431.615248 L235.726324,429.176739 C235.569345,424.680242 233.07291,375.183798 231.17323,338.903185 C230.138443,319.140231 228.947783,295.784012 228.527351,287.000477 C228.10692,278.216942 227.719537,270.876855 227.666473,270.689517 C227.596363,270.441983 213.331571,270.341242 175.398542,270.32067 C114.349266,270.287811 110.23403,270.235914 72.7531718,269.027712 C58.4787795,268.567651 46.6300427,267.792481 39.588776,266.858551 C30.0169495,265.588926 26.5382371,264.641774 24.778895,262.825797 C23.5749402,261.583202 23.6616912,260.708534 25.2626006,257.947245 C27.4643965,254.149753 27.4715821,253.078527 25.3215692,249.158188 C24.6765217,247.981925 24.0709806,246.51361 23.9759384,245.895373 C23.8184076,244.870843 23.915748,244.654327 25.0776364,243.445512 C27.1476474,241.29232 31.7794917,239.898928 41.176245,238.602596 C45.5055369,238.005252 47.0073895,237.862125 58.352842,236.964737 C75.9073677,235.575948 110.08447,234.65153 153.618349,234.387106 L188.373355,234.176419 L175.917856,222.966663 C169.067313,216.801304 163.329,211.705316 163.166058,211.642666 C163.003087,211.579708 162.786733,211.658635 162.685233,211.817716 C162.318533,212.392938 156.809753,215.844319 153.582421,217.520865 C146.123603,221.395459 135.327957,224.504087 123.517971,226.178179 C115.788368,227.273981 101.459807,227.527651 96.7537214,226.652369 C93.3612364,226.021246 88.3996101,224.592233 86.5277127,223.707133 C86.0235266,223.468803 85.522366,223.273779 85.4140581,223.273779 C85.3057502,223.273779 83.7545874,222.499238 81.9670264,221.552392 C66.5814232,213.404582 56.4488857,196.74504 53.9846256,175.544789 C53.4486134,170.933131 53.3758262,161.065775 53.843997,156.475916 C55.1301937,143.865404 58.7078465,131.735218 64.3356408,120.903834 C65.4628521,118.734352 66.3451705,116.839755 66.2963548,116.693867 C66.2475101,116.547687 63.5786199,113.553607 60.3654554,110.039883 C57.1522618,106.526466 53.8140035,102.809435 52.9471037,101.780287 C52.0801747,100.750833 49.991516,98.3322972 48.3056592,96.4057464 C46.6198024,94.4789041 44.3288409,91.7986903 43.2146335,90.4495249 C42.1004262,89.1006662 41.0579005,87.8414881 40.8978969,87.6516956 C31.6826458,76.721719 20.8981952,61.4574095 15.0984697,51.1349164 C11.8021324,45.2680686 11.1479792,44.014413 8.78105956,39.0280787 C3.30553039,27.4927663 0,16.0867743 0,8.72794112 C0,3.20630054 1.03918016,2.32672284 5.00433293,4.49312268 C7.68291063,5.95652876 9.25298309,6.15370008 10.5480818,5.18965765 C11.0801086,4.79378095 11.7751936,4.12027207 12.0926699,3.69369859 C12.4101754,3.26680343 13.2462673,2.26098884 13.9506907,1.45880392 C15.0935241,0.156933216 15.3653267,0 16.4743266,0 C17.5783519,0 17.8942573,0.179974632 19.3026969,1.61236223 C20.3513318,2.67866437 21.705661,4.68046075 23.3022066,7.5243577 C29.287071,18.1840648 33.5850312,25.1126126 38.6636348,32.2880962 C44.1976088,40.1066686 46.0184796,42.4751482 55.1149497,53.6879728 C59.9108413,59.5996608 79.1334197,80.5622107 86.2082872,87.5961016 C89.9077464,91.2738308 89.919674,91.2824368 90.6438797,90.7815238 C92.0594466,89.8024323 96.9307436,87.2214255 99.4425975,86.120101 C103.610286,84.2921435 107.738729,82.9988788 111.590425,82.3143248 C112.390443,82.1721185 113.699564,81.8908046 114.499582,81.6890311 C116.752492,81.1211722 128.089479,81.2114663 131.663612,81.8260063 C139.914384,83.2439585 148.172755,86.584473 152.289562,90.1694382 C154.435386,92.0379406 155.156478,93.2461269 155.134369,94.9361888 C155.115518,96.3774892 154.811336,96.9991012 152.898216,99.5057833 C150.825877,102.220697 150.528329,102.933815 150.000928,106.447232 C149.728427,108.262289 149.252547,110.088405 148.819548,110.979964 L148.094469,112.473176 L150.358841,114.97248 C159.889998,125.492758 167.248392,136.330906 172.281234,147.262417 C176.929864,157.358883 179.810163,168.634359 179.810163,176.735165 L179.810163,178.996783 L186.86487,185.37743 C190.744959,188.886859 193.985033,191.83886 194.065035,191.937438 C194.215351,192.122628 199.758722,197.181768 201.047013,198.309801 C201.447022,198.659917 207.067718,203.795529 213.537452,209.722573 C220.007156,215.64931 225.344442,220.452004 225.398058,220.395489 C225.451674,220.338975 225.362944,217.128379 225.200875,213.260551 C225.038835,209.393029 224.646041,198.489469 224.328012,189.030277 C221.9823,119.260132 221.983231,82.9626446 224.331153,68.3033488 C225.568535,60.5778319 227.252413,58.679845 231.205405,60.5544836 C233.531277,61.6573422 234.604465,62.0280298 235.486783,62.0329541 C236.598023,62.0387834 238.543203,61.4356107 239.447892,60.8041808 C240.626683,59.9814089 242.583993,59.2735067 243.679727,59.2735067 C245.305277,59.2735067 246.98389,61.266083 248.093385,64.5129131 C253.456911,80.2090266 256.82813,126.993948 260.175087,232.180161 L260.248369,234.483536 L306.940347,235.153977 C365.338804,235.993025 404.202153,236.662223 418.506538,237.075603 C445.308781,237.849853 459.459971,238.068823 459.668557,237.712571 C459.781723,237.519081 459.962819,235.262388 460.071185,232.697657 C461.138555,207.417036 465.492982,143.034961 468.113696,113.786706 C470.054686,92.1236172 472.148407,79.0868237 473.79339,78.4203868 C474.51137,78.1295464 475.056546,78.897338 475.651905,81.0376278 C478.162072,90.0619474 480.160517,116.389527 481.622805,159.70064 C482.357513,181.460773 483.231279,220.712746 483.233897,232.078208 C483.234624,235.315819 483.314771,238.183678 483.411937,238.450878 C483.564814,238.871622 484.391014,238.937647 489.593897,238.945333 C492.896809,238.950242 501.883051,239.15786 509.563227,239.406928 C517.243403,239.65569 528.632755,239.996893 534.872898,240.164886 C541.11304,240.332573 554.335161,240.753639 564.255389,241.100058 C599.327028,242.32515 610.828673,242.550578 610.510121,242.006359 C610.410627,241.836524 609.519262,241.117562 608.529275,240.408739 C607.539143,239.699916 606.598176,239.004302 606.438173,238.862402 C606.278169,238.720825 604.890501,237.608455 603.354466,236.390727 C599.559179,233.381306 595.705709,230.256387 595.528832,230.04478 C595.44883,229.94927 593.419693,228.226043 591.019638,226.215963 C588.619583,224.205883 586.442806,222.341384 586.182436,222.07265 C585.922067,221.804237 585.463874,221.369963 585.164231,221.107687 C584.864588,220.84541 582.00125,218.239828 578.801176,215.317005 C575.601103,212.394488 572.82693,209.936941 572.636526,209.856158 C572.446122,209.775084 569.566056,211.321727 566.236379,213.293103 C559.811069,217.097054 546.38967,224.195129 545.621944,224.195129 C545.53016,224.195129 544.776106,224.529583 543.945978,224.938668 C543.11585,225.347737 541.323954,226.117998 539.963923,226.650221 C538.603892,227.18246 537.229315,227.73711 536.909308,227.882676 C536.589301,228.028564 535.083812,228.558333 533.563777,229.060473 C520.01263,233.536399 507.377286,233.929192 503.817641,229.985505 C503.377631,229.498122 503.017623,228.904767 503.017623,228.667066 C503.017623,227.540553 505.602991,225.390736 509.991164,222.867778 C517.153219,218.750252 530.701893,208.964906 539.454821,201.587665 C540.534845,200.677682 542.367615,199.138402 543.527641,198.16761 C544.687668,197.196817 545.702237,196.32399 545.782238,196.228173 C545.86224,196.132356 547.536169,194.696578 549.502324,193.037228 C551.468332,191.378185 553.039277,189.916926 552.993313,189.790091 C552.947202,189.663241 550.761843,187.159934 548.13691,184.227277 C545.511832,181.29462 541.899386,177.098796 540.10909,174.902912 C536.360641,170.305076 528.099506,159.388921 525.620468,155.757873 C523.474237,152.613932 516.688772,141.883581 516.461421,141.273643 C516.366874,141.02028 515.877117,140.121956 515.373106,139.277385 C514.868949,138.432814 513.463244,135.737874 512.249398,133.288611 C504.390163,117.43156 501.341657,102.84168 505.014905,98.6652012 C506.146858,97.3787016 507.109935,97.0516117 511.169664,96.5758877 C513.964637,96.2485063 515.358705,95.9189619 517.002961,95.1969311 C524.093742,92.0840081 525.937129,92.280259 529.92733,96.5734333 C532.42106,99.2564083 533.752872,101.366293 541.276244,114.554497 C548.25764,126.791867 553.944753,135.933496 561.43336,146.9553 C564.072984,150.840326 566.649625,154.640901 567.159164,155.401007 C567.911909,156.523517 576.20679,168.231425 576.469341,168.54161 C576.543088,168.628821 584.055988,161.787192 584.619491,161.120126 C584.779495,160.930334 585.826792,159.946947 586.946817,158.934076 C588.066843,157.921204 589.11414,156.941193 589.274143,156.756002 C589.434147,156.570812 591.856021,154.366644 594.656085,151.858413 C597.456149,149.34989 599.943479,147.082442 600.183484,146.819246 C600.42349,146.556049 601.40533,145.652816 602.365352,144.812234 C603.325374,143.97136 604.176303,143.201421 604.256305,143.101294 C604.481037,142.819673 614.135367,134.40928 618.365719,130.810186 C632.953544,118.397751 644.347114,110.635386 651.45084,108.268747 C653.524633,107.577735 654.390689,107.444134 656.178948,107.539644 C658.231795,107.648976 658.432236,107.723914 659.394586,108.739853 C660.079547,109.462805 660.852073,110.924385 661.71653,113.132541 C663.100416,116.66808 663.36704,117.134584 666.039683,120.69683 C668.420829,123.870271 668.928622,125.173983 668.790146,127.759898 C668.611087,131.104708 666.777882,133.901617 660.508502,140.394372 C658.610422,142.360225 655.552025,145.326048 653.711983,146.985092 C651.871941,148.644135 650.300995,150.08881 650.220994,150.195381 C650.140992,150.301644 648.373679,151.824326 646.293631,153.578572 C644.213583,155.332834 642.249902,157.001082 641.929895,157.285479 C641.027183,158.087664 635.420218,162.776101 633.637487,164.21955 C632.758194,164.931456 631.646023,165.88321 631.166012,166.334666 C630.686001,166.786121 629.0496,168.130684 627.529565,169.32261 C626.00953,170.514213 624.700409,171.578383 624.620407,171.686794 C624.540406,171.795205 622.773092,173.213157 620.693045,174.837501 C618.612997,176.462151 616.780228,177.906826 616.620224,178.048403 C616.183269,178.43506 610.324662,182.93708 607.020004,185.425952 C605.419968,186.631085 603.968589,187.746523 603.794912,187.904699 C603.62109,188.062859 601.722865,189.45932 599.576634,191.007497 C597.430257,192.555982 595.634144,193.942302 595.58527,194.088481 C595.491449,194.368583 596.066444,195.20148 599.621144,199.932917 C600.826699,201.537609 603.057004,204.578063 604.57733,206.689482 C606.097656,208.800917 608.390945,211.979574 609.673592,213.753164 C616.735572,223.518245 623.84308,234.326296 626.868313,239.900156 L628.262382,242.468568 L642.078116,242.685697 C649.67669,242.804862 659.559389,243.05548 664.039492,243.241897 C672.54805,243.596309 689.8107,244.847801 693.567441,245.382494 C694.767468,245.553249 697.123886,245.833029 698.803924,246.004106 C703.730728,246.505924 717.179472,248.920778 721.786269,250.130821 C725.289185,251.050943 732.117851,253.157453 733.35017,253.697991 C733.710178,253.856151 734.299283,254.110742 734.659291,254.263994 C739.24165,256.214798 742.441287,258.184348 742.441287,259.054092 C742.441287,259.279828 742.032551,259.559301 741.533194,259.675091 C740.430914,259.930602 734.158916,259.62841 727.459126,258.996366 C724.128868,258.682484 717.282457,258.478256 706.498646,258.371686 C687.052092,258.179424 676.976806,258.574994 645.129968,260.782858 C632.969689,261.625588 620.991233,262.441288 618.511177,262.595153 C616.03112,262.749018 612.300125,263.027264 610.220078,263.213682 C600.715569,264.065631 563.454643,265.318351 505.92678,266.719735 C494.166511,267.006265 484.369632,267.298946 484.155954,267.369896 C483.840456,267.474932 483.800601,268.779871 483.94344,274.332224 C484.04017,278.090414 484.250793,288.075385 484.411669,296.521092 C485.17605,336.661234 486.36895,375.682854 487.749491,405.701049 C488.403615,419.924859 489.363055,438.059175 489.481895,438.444911 C489.553169,438.676476 491.655908,438.847845 495.938915,438.970998 C509.426933,439.358883 573.756843,441.864644 575.746561,442.079319 C576.626581,442.174537 581.666696,442.385515 586.946817,442.5486 C592.226938,442.711669 599.361647,442.991771 602.801726,443.17081 C612.664352,443.684011 634.365794,444.737412 640.91169,445.020889 C644.191765,445.162773 649.035512,445.42597 651.675572,445.605638 C654.315633,445.785612 659.15938,446.073983 662.439455,446.246287 C665.71953,446.418883 670.170541,446.693754 672.330591,446.85713 C674.49064,447.020215 678.548915,447.307374 681.348979,447.494712 C697.136541,448.552116 705.823721,449.257871 715.095207,450.236655 C729.975838,451.807246 736.771194,452.737186 739.677588,453.60081 C740.157599,453.743307 741.073983,453.948763 741.713998,454.057481 C742.354013,454.166199 743.916812,454.613988 745.18695,455.052542 C750.591874,456.918896 751.107231,458.140904 748.40506,462.684696 C746.365304,466.114584 746.341013,466.773949 748.114144,470.569003 C749.640434,473.835791 749.767419,475.1349 748.686958,476.431233 C744.386641,481.591713 715.15979,482.959624 649.202788,481.08744 C624.930087,480.398268 606.219695,479.741649 597.565242,479.275145 C595.885204,479.184544 590.64872,478.965865 585.928612,478.788974 C581.208504,478.612375 575.252004,478.330754 572.691945,478.163681 C570.131887,477.996607 564.502667,477.723593 560.182568,477.556826 C550.384962,477.179067 528.991454,476.160366 522.218062,475.748827 C519.417998,475.578685 513.91969,475.294288 509.999601,475.116476 C506.079511,474.938649 501.497588,474.717531 499.817549,474.62509 L496.762934,474.457096 L497.490223,475.112472 C497.890233,475.473035 498.872073,476.424176 499.672092,477.226361 C500.47211,478.028546 508.835501,485.99945 518.25739,494.939933 C527.679278,503.880402 535.67888,511.472012 536.034379,511.80984 C539.348636,514.959933 544.887236,520.240498 546.888009,522.157829 L549.354247,524.521093 L551.162871,522.90106 C556.059419,518.515736 563.193401,514.073299 569.200956,511.668569 C570.160978,511.28406 571.171038,510.849494 571.445662,510.702686 C571.720287,510.555586 572.440303,510.304355 573.045699,510.144353 C573.651095,509.98403 575.324733,509.512617 576.764766,509.096475 C578.204799,508.680641 581.215777,508.035067 583.455828,507.661925 C587.060856,507.061513 588.297103,507.00101 594.219711,507.133077 C600.13301,507.265128 601.451731,507.392592 605.565426,508.229477 C610.568304,509.247257 611.449633,509.477901 614.583814,510.590593 C619.471926,512.325802 624.49095,514.84876 626.919078,516.791281 C629.782126,519.081754 630.729638,520.402662 630.729638,522.103171 C630.729638,523.38108 630.374139,524.038619 628.408421,526.397879 C627.493491,527.495829 626.527796,528.838229 626.262336,529.381221 C625.607775,530.720246 625.025071,536.623942 625.530101,536.801462 C625.729815,536.871783 628.126815,538.131575 630.856914,539.601132 C635.039555,541.85261 637.635687,543.393716 641.344863,545.827009 C644.100999,547.6353 652.517483,554.674115 655.395803,557.578515 C660.819345,563.050713 663.893307,567.314725 667.104726,573.821609 C676.251844,592.35424 674.360892,612.355816 661.798131,629.954887 C660.870837,631.253919 660.112129,632.436058 660.112129,632.581946 C660.112129,632.727527 662.432037,635.188755 665.267593,638.051291 C675.907982,648.792395 690.756758,664.786083 694.731104,669.786623 C697.665716,673.479079 698.33715,675.300609 696.564455,674.76001 C694.865798,674.241962 686.274474,668.612462 683.530847,666.219499 C683.370844,666.079747 682.781739,665.635333 682.221726,665.231418 C681.661714,664.827656 680.287137,663.781895 679.167111,662.907487 C678.047085,662.033232 675.82158,660.296996 674.221543,659.049507 C672.621507,657.802018 667.082034,653.350362 661.911734,649.156732 C656.741434,644.963255 652.355879,641.470226 652.166056,641.394597 C651.976234,641.318815 651.362838,641.680237 650.802825,642.197365 C649.507959,643.393616 645.116149,646.885572 642.657184,648.674273 C634.578744,654.549681 621.850889,660.544591 608.620041,664.706006 C595.433412,668.853308 577.229358,671.655095 562.946268,671.735632 C557.751822,671.764779 555.958762,671.665526 554.260105,671.254708 C544.720396,668.947652 537.559359,663.931772 531.386272,655.233253 C525.135947,646.425511 521.713178,637.120736 519.637494,623.293125 C518.613762,616.47305 518.349319,611.633432 518.522996,602.88834 C518.740601,591.924906 519.645203,584.870428 522.232463,573.960118 C524.622336,563.882996 529.621432,551.245147 534.1827,543.749968 L535.304035,541.907268 L534.070261,540.704604 C533.3917,540.043383 531.592822,538.458358 530.072788,537.18229 C528.552753,535.906529 526.850896,534.423149 526.290883,533.885695 C525.73087,533.348548 524.552661,532.314491 523.672641,531.587536 C522.792621,530.860903 521.927292,530.121369 521.749833,529.944462 C520.723192,528.920546 494.459754,506.152144 494.392552,506.228003 C494.328405,506.299858 494.955038,513.01436 496.188812,525.476529 C498.877891,552.637926 501.88756,575.884813 508.136722,617.765026 C513.365205,652.804854 513.577283,654.541397 513.610593,662.604052 C513.634593,668.418405 513.600992,668.81557 512.979451,670.043423 C512.200524,671.582381 511.211556,671.969268 509.000014,671.600789 C505.109889,670.952194 503.757276,670.951887 502.56554,671.600176 C501.934107,671.943803 501.155762,672.482868 500.835755,672.797961 C499.650855,673.965526 497.608335,675.303984 496.720315,675.494666 C495.571343,675.741341 493.878068,675.026935 492.912955,673.88821 C486.228438,666.000437 477.558567,635.122638 470.601171,594.424209 C465.069117,562.063951 460.613161,521.513804 458.33369,482.78732 L457.836515,474.341613 L456.984569,473.379733 C456.35139,472.664759 455.783668,472.36901 454.774482,472.228353 C453.236119,472.013678 432.193252,470.679255 422.724817,470.195538 C415.288428,469.815953 398.626025,468.815661 391.887747,468.344248 C389.247686,468.159671 372.098203,467.03101 353.777783,465.83663 C314.820557,463.296168 313.345294,463.19667 282.22013,461.00999 C272.384094,460.318978 264.314062,459.753573 264.286716,459.753573 C264.235427,459.753573 264.169797,461.341069 263.436253,480.330387 C262.896691,494.298057 261.920407,513.871218 260.249998,544.210643 C257.194451,599.706615 256.624693,613.92116 255.87989,653.236995 C255.641485,665.821106 255.311761,677.844829 255.14719,679.956141 C254.587235,687.139325 253.644028,688.704669 251.976616,685.217469 Z M585.783154,637.740799 C592.249484,637.00691 593.779556,636.761462 600.038026,635.452458 C603.303265,634.769806 607.520379,633.710852 608.620041,633.297733 C609.02005,633.147243 610.525539,632.65558 611.965572,632.20503 C613.405605,631.75448 614.845638,631.260976 615.165645,631.108645 C615.485653,630.956007 616.402037,630.607164 617.202056,630.332876 C620.958505,629.045809 630.58418,624.133784 630.58418,623.504517 C630.58418,623.33838 627.049554,620.258623 622.729455,616.660051 C616.051484,611.097589 613.684884,609.09274 609.056415,605.076554 C608.226723,604.356671 601.102196,598.360226 599.921805,597.388192 C599.377793,596.940418 598.723232,596.356896 598.467227,596.091552 C598.211075,595.826208 596.037935,593.965069 593.63788,591.955618 C591.237825,589.946152 589.208687,588.221067 589.128686,588.122183 C589.048684,588.023282 587.674107,586.850103 586.07407,585.515373 C584.474033,584.180336 582.837632,582.765145 582.437623,582.370496 C582.037614,581.975555 580.990317,581.076311 580.110297,580.37209 C579.230277,579.66787 577.724788,578.393029 576.764766,577.539254 C575.804744,576.685157 574.364711,575.436426 573.564693,574.763837 C572.764674,574.091249 571.84829,573.307794 571.528282,573.022799 C569.601547,571.306014 562.287344,565.094573 562.192796,565.094573 C562.130395,565.094573 561.488925,566.335634 560.767163,567.852486 C556.561103,576.693763 553.809622,586.91214 552.413227,598.8774 C551.872269,603.512714 551.960416,614.421873 552.575703,618.993493 C553.500524,625.864345 554.829427,630.48398 557.037332,634.503189 C558.057719,636.360615 559.856888,638.342453 560.7644,638.608457 C561.084407,638.702188 565.33905,638.716301 570.219162,638.639445 C576.911969,638.534209 580.736057,638.313306 585.783154,637.740799 Z M643.248907,612.774458 C647.513295,607.688012 650.055608,601.696737 650.647767,595.338196 C651.020285,591.336767 649.905495,585.513225 647.837521,580.659249 C646.642293,577.854041 644.146818,573.48869 642.692385,571.659812 C642.27303,571.132175 641.407265,570.026556 640.768704,569.202879 C637.88762,565.486154 631.816209,559.312496 626.97988,555.181778 C624.650372,553.191963 614.792691,546.001752 611.529198,543.911825 C609.369149,542.528573 607.247064,541.1315 606.8136,540.807493 C606.121802,540.290304 605.496769,540.218127 601.711519,540.218127 C592.629129,540.218127 585.502275,541.984661 579.06111,545.832531 C576.817276,547.173091 574.690537,548.810949 574.873814,549.057256 C574.953815,549.165054 580.583035,554.644937 587.383191,561.234737 C594.183347,567.824842 604.774135,578.126457 610.918275,584.127519 C617.062562,590.128581 622.953606,595.864896 624.009484,596.875006 C625.065508,597.885116 627.369561,600.167597 629.129602,601.947339 C635.480438,608.368823 641.524067,614.209868 641.832438,614.223981 C641.938768,614.22889 642.576164,613.576612 643.248907,612.774458 Z M414.419172,435.858367 C414.267168,435.722312 413.226417,434.784072 412.106392,433.773042 C410.986366,432.762027 408.957229,430.981057 407.597198,429.815548 C406.237166,428.649732 405.058958,427.609524 404.978956,427.503874 C404.80973,427.280302 400.22996,423.21837 395.669652,419.24704 C392.914709,416.847848 390.963304,415.11356 390.603208,414.744713 C390.429677,414.566901 386.753084,411.335719 382.432985,407.564643 C378.112886,403.793551 373.744379,399.930954 372.725214,398.981654 C371.706019,398.032047 370.430179,396.922745 369.889978,396.516115 L368.907846,395.776887 L366.665933,397.223096 C364.075939,398.893814 357.506392,402.421973 355.37782,403.285275 C354.577802,403.609588 353.595961,404.028184 353.195952,404.214924 C351.619334,404.951375 351.200968,405.112619 348.250384,406.121808 C341.076576,408.575658 334.54223,409.693565 327.371244,409.693565 C321.126039,409.693565 316.7342,408.96141 311.304083,407.015514 C295.389275,401.31235 284.41794,387.137997 281.7606,368.847055 C280.809858,362.30271 281.266595,352.300235 282.807227,345.926338 C283.856589,341.58524 285.993627,335.614276 288.196703,330.868711 C289.385501,328.307969 290.358149,326.077998 290.358149,325.91338 C290.358149,325.748776 290.063597,325.4088 289.703589,325.157876 C289.34358,324.906967 288.721748,324.364911 288.321739,323.953678 C287.92173,323.542139 285.958048,321.769468 283.958003,320.013979 C279.69117,316.268997 272.821253,310.124211 272.612288,309.865923 C272.532286,309.766731 270.864088,308.282738 268.905178,306.567809 C266.946268,304.853172 264.872795,302.996651 264.297421,302.442307 C263.722077,301.88827 263.045582,301.311805 262.794172,301.161621 C262.295106,300.863417 262.278437,298.701313 263.017654,330.150362 C263.65121,357.105076 263.904802,374.380692 264.082667,402.706662 L264.269261,432.420195 L270.404441,432.426653 C273.778802,432.430335 287.14353,432.709501 300.103827,433.047022 C313.064124,433.384237 329.624503,433.788398 336.90467,433.944733 C344.184836,434.101052 354.854172,434.379912 360.614303,434.564795 C402.856202,435.919176 414.808592,436.206642 414.419172,435.858367 Z M455.971018,426.201083 C455.619592,411.358146 455.726503,348.268708 456.128694,333.221528 C456.705726,311.629696 457.546909,287.002625 458.184887,273.026671 C458.304453,270.40851 458.321326,268.16257 458.22227,268.036026 C458.051502,267.81767 406.423847,268.634904 406.211129,268.859412 C406.155448,268.918074 407.198439,270.25986 408.528913,271.840897 C415.859263,280.551949 423.747153,292.417404 427.628929,300.571963 C433.270571,312.42329 434.671563,324.715011 431.566416,335.116753 C429.049616,343.547718 423.269469,352.430138 415.015549,360.550304 C413.73552,361.809789 412.622767,362.913262 412.542765,363.002635 C412.462764,363.092009 411.808203,363.668152 411.088187,364.282692 C410.36817,364.897232 409.451785,365.700337 409.051776,366.067343 C408.651767,366.434042 408.022284,367.008359 407.652908,367.343411 C406.832031,368.088177 396.046417,376.80383 395.150949,377.44632 C394.52324,377.896564 394.618951,378.008964 399.380166,382.417928 C402.0595,384.898823 404.709859,387.369884 405.269872,387.909179 C407.155529,389.724542 411.223375,393.564727 412.542765,394.77477 C413.762139,395.892984 417.08716,399.046452 420.529305,402.349489 C421.336829,403.124338 422.444112,404.160864 422.989928,404.652864 C423.535744,405.144864 424.32497,405.893005 424.743801,406.315282 C425.162603,406.737575 426.614244,408.104858 427.969679,409.353896 C429.325084,410.602627 431.154101,412.3317 432.034121,413.195922 C432.914141,414.060159 434.157806,415.230577 434.79782,415.796902 C435.437835,416.363227 436.6815,417.542542 437.56152,418.417518 C438.44154,419.292493 440.797958,421.5151 442.798004,423.35688 C444.798049,425.198659 446.644259,426.920353 446.900847,427.182629 C447.741593,428.042556 449.884042,430.079665 452.248606,432.26725 C453.526307,433.449342 454.812155,434.727266 455.106125,435.107465 C455.400096,435.487372 455.766068,435.798477 455.91938,435.798477 C456.096112,435.798477 456.115021,432.284447 455.971018,426.201083 Z M334.286108,376.821349 C337.626635,376.449726 344.468479,374.594447 344.468479,374.059754 C344.468479,373.85798 344.048193,373.461183 341.554871,371.307992 C340.677294,370.550325 339.893829,369.853177 339.813827,369.759201 C339.733825,369.664918 338.49016,368.563594 337.050127,367.311472 C335.610094,366.059059 334.36643,364.951599 334.286428,364.849937 C333.489784,363.838293 317.271464,349.836844 317.109336,350.020807 C316.630634,350.563799 315.345107,354.93007 314.937563,357.397143 C313.829436,364.105801 315.114818,369.886343 318.432508,373.114749 C319.923044,374.565269 323.584045,376.512069 324.88534,376.546478 C325.335823,376.558137 325.966237,376.686828 326.286245,376.832087 C327.087688,377.195411 330.965857,377.190196 334.286108,376.821349 Z M378.860569,355.62139 C383.97638,352.563432 386.5063,350.905002 393.206381,346.218405 C404.106179,338.593614 410.414397,332.02408 412.470706,326.156005 C413.323001,323.723647 413.801238,319.932905 413.57444,317.40717 C412.773171,308.484512 409.98838,300.760836 399.135389,277.359777 L395.233976,268.947558 L381.269671,269.158843 C355.283156,269.551958 315.02091,269.94199 299.521995,269.950596 C283.025676,269.959509 278.905698,270.117363 279.673774,270.710088 C279.923117,270.902658 280.837553,271.744467 281.705878,272.580738 C283.598518,274.403787 284.619196,275.353701 287.299112,277.786979 C288.415414,278.800464 289.527643,279.853573 289.770732,280.127523 C290.013821,280.401167 294.960727,285.011291 300.763886,290.37201 C311.783774,300.551392 311.44637,300.29924 312.467746,299.116534 C312.675198,298.876379 318.891021,294.125583 319.480271,293.757043 C319.750211,293.588129 322.112011,292.023368 324.728711,290.280182 C331.726049,285.618452 339.326252,281.887599 346.359432,279.662231 C347.799465,279.206787 349.37041,278.709863 349.850421,278.55816 C350.930765,278.216942 355.121727,277.337671 357.268772,277.001684 C358.148792,276.863788 359.654281,276.600898 360.614303,276.417242 C361.574325,276.233585 365.6326,275.949817 369.632692,275.787039 C385.284192,275.149473 397.67313,277.325383 399.632622,281.055623 C400.218003,282.170156 400.098088,284.304923 399.302375,286.935372 C398.393612,289.939286 398.397743,290.822545 399.337576,294.464331 C399.884352,296.583129 400.059163,297.877636 399.963335,299.097804 C399.842256,300.639216 399.713264,300.902735 398.523942,302.039373 C396.375297,304.093051 392.652186,305.395842 384.760311,306.85526 C382.840267,307.210285 380.680217,307.61015 379.960201,307.74375 C379.240185,307.87735 376.883767,308.276909 374.723717,308.631627 C372.563668,308.986652 370.403619,309.402793 369.923608,309.557272 C369.443597,309.711444 368.461756,309.928267 367.741739,310.039454 C365.195296,310.431941 359.988485,312.002224 355.540209,313.719009 C351.67807,315.209752 342.520478,320.673666 338.473171,323.902073 L337.643217,324.56423 L338.364892,325.291783 C338.761788,325.691955 340.068378,326.914285 341.268406,328.007617 C342.468433,329.101256 343.51573,330.066526 343.595732,330.152509 C343.675734,330.238815 344.788486,331.271337 346.068516,332.446986 C347.348545,333.622927 349.120338,335.28013 350.005799,336.129931 C352.596869,338.616042 354.075506,340.003589 356.396578,342.127296 C357.596314,343.225246 358.643349,344.192663 358.723351,344.277112 C358.879689,344.442652 360.447085,345.926031 364.078354,349.34515 C371.04052,355.900249 373.731549,358.36272 373.954827,358.382678 C374.091965,358.394966 376.29955,357.152371 378.860569,355.62139 Z M125.293953,195.325861 C130.324876,194.913401 135.647238,194.072205 137.9183,193.330523 C138.638317,193.095277 139.816025,192.742706 140.535402,192.546762 L141.843417,192.19051 L140.68086,191.129423 C140.041485,190.545902 138.405584,189.078799 137.045553,187.869063 C135.685522,186.659343 134.049121,185.162755 133.409106,184.543306 C132.309125,183.478845 130.889078,182.240545 126.136212,178.201655 C125.016187,177.2499 124.034346,176.394576 123.954344,176.3006 C123.874342,176.206624 122.630678,175.102845 121.190645,173.847655 C119.750612,172.592174 112.579567,165.26775 105.254978,157.571088 C94.7305187,146.511822 91.8803007,143.673448 91.6644412,144.037693 C91.0285285,145.110146 88.7199374,153.097019 87.9804005,156.783032 C87.2415327,160.46567 87.1786658,161.323449 87.1702001,167.83923 C87.1602799,175.493184 87.4517484,177.579122 89.2172579,182.489 C90.5090693,186.08165 93.3662693,190.123916 95.8796359,191.914718 C98.0245578,193.442923 102.01214,194.948408 104.753905,195.265358 C108.175918,195.660621 120.755231,195.697775 125.293953,195.325861 Z M153.183313,152.347652 C150.29516,143.588385 145.069033,132.711532 137.293122,119.276423 L134.426933,114.324467 L131.808895,114.439336 C125.073439,114.735086 123.922402,114.847486 121.336103,115.462332 C119.816068,115.823509 118.345081,116.250711 118.067257,116.411633 C117.789432,116.572554 117.437948,116.704314 117.286177,116.704314 C117.134406,116.704314 116.648839,116.849266 116.207112,117.026479 C115.410992,117.346191 115.502922,117.453681 126.73387,129.338788 C132.965314,135.933189 139.057527,142.249053 140.272123,143.374017 C143.575006,146.433202 145.641584,148.282038 147.507954,149.847412 C151.140881,152.894018 153.486767,154.950779 153.579279,155.17067 C153.632604,155.297198 153.791822,155.401007 153.93312,155.401007 C154.074388,155.401007 153.736984,154.026975 153.183313,152.347652 Z M306.794889,657.99086 C305.354856,657.774712 303.325719,657.380922 302.285695,657.115992 C299.942921,656.519247 294.972015,654.568703 293.412765,653.634774 C292.77275,653.251109 291.921821,652.768957 291.521812,652.563241 C289.625391,651.587279 284.890853,647.47342 281.339761,643.715767 C269.59075,631.283987 263.586772,616.340048 263.596285,599.552443 C263.605798,582.770054 269.258175,566.603755 280.583671,550.967208 C282.952074,547.69703 284.171797,546.235158 288.612655,541.342493 C299.917757,528.887671 317.292293,518.073792 332.831849,513.820226 C333.391862,513.666975 334.570071,513.334685 335.450091,513.081306 C336.330111,512.828249 337.704688,512.534954 338.504706,512.429304 C339.304725,512.323654 340.352021,512.108673 340.832032,511.95111 C342.226566,511.493519 350.997327,510.735545 354.650531,510.756746 C356.490573,510.767484 359.583385,510.945004 361.523473,511.151687 L365.050885,511.526992 L363.617369,509.112445 C361.289432,505.190863 361.1159,503.970696 362.888508,503.986665 C364.517927,504.001101 369.252989,506.515468 372.250934,508.958273 C374.146366,510.502447 377.996025,513.971944 378.780887,514.842931 C379.332288,515.455016 379.921393,515.958369 380.090008,515.961452 C380.538018,515.969736 384.153868,517.767595 386.505805,519.151461 C389.789197,521.083228 393.059061,523.712756 395.388074,526.293456 C399.042674,530.343407 399.387351,532.219887 396.949506,534.79353 L395.625898,536.190911 L396.393741,537.513353 C396.816034,538.240922 397.56392,539.527114 398.055684,540.371685 C399.787942,543.346728 403.171002,550.550146 404.618337,554.345491 C408.562078,564.68673 410.043624,572.43558 410.04985,582.753778 C410.053661,589.036154 409.718904,591.768878 408.31925,596.881142 C405.481949,607.244211 400.08104,615.484356 391.015,623.28208 C389.654968,624.451946 387.953111,625.918037 387.233095,626.53994 C383.6363,629.647463 373.930943,636.399733 367.596282,640.202334 C362.665492,643.162128 352.241166,648.430053 346.650347,650.787733 C343.094455,652.287112 336.159722,654.746193 333.559138,655.429918 C328.718591,656.702259 327.604791,656.930065 322.545941,657.68405 C316.723786,658.551401 311.238395,658.658325 306.794889,657.99086 Z M324.104376,625.780432 C329.303099,624.950665 339.708457,621.827035 344.613937,619.623373 C345.253952,619.335739 346.366704,618.888871 347.086721,618.63023 C347.806737,618.371282 348.91949,617.912448 349.559505,617.610241 C350.199519,617.308033 351.574096,616.688277 352.61412,616.232818 C354.622195,615.353961 363.02422,611.017972 364.97804,609.852555 C368.773181,607.588759 369.928175,606.870363 372.687307,605.057516 C374.367346,603.953737 375.872835,602.938412 376.032838,602.80113 C376.192842,602.663848 377.436507,601.670934 378.796538,600.594492 C382.758345,597.459448 385.09949,594.463834 386.943779,590.170031 C390.877076,581.012126 390.268335,567.070566 385.279363,552.050723 C383.997966,548.193034 384.678418,548.671826 378.941996,547.591687 C377.021952,547.230219 374.272798,546.679557 372.832765,546.367838 C368.04819,545.332846 364.300322,545.036176 358.373728,545.223514 C354.854346,545.334687 351.999735,545.584691 350.723168,545.893034 C349.603142,546.163595 347.966741,546.526305 347.086721,546.699208 C345.309837,547.04779 345.060667,547.123342 340.622951,548.652175 C336.34969,550.124479 332.721737,551.823453 328.904486,554.140343 C326.578179,555.552159 320.521924,559.712975 319.966129,560.281141 C319.76211,560.489664 318.80971,561.30538 317.849688,562.093436 C315.741189,563.824349 312.345184,567.252075 309.890902,570.12699 C303.340963,577.799076 298.648375,587.131417 297.170436,595.4251 C296.524661,599.048769 296.733888,605.485946 297.597093,608.551528 C298.926374,613.272257 301.655426,617.887904 305.73645,622.318391 C308.296102,625.097167 309.544392,625.721525 313.776867,626.340974 C315.287331,626.562184 321.225969,626.239573 324.104376,625.780432 Z M45.4173313,605.346823 C44.9799976,604.484119 45.0480719,602.164162 45.5743094,599.996535 C46.5344187,596.041803 49.7981734,590.018313 54.3261025,583.844656 C56.7154809,580.586765 62.5166901,574.063605 66.2212986,570.469113 C67.9621384,568.779972 69.6530281,567.114179 69.9788828,566.767438 C70.3047084,566.421019 72.0767927,564.821865 73.9168348,563.214411 C75.7568769,561.606651 77.4587341,560.087651 77.6987396,559.838583 C78.7866772,558.709937 94.9005008,545.806115 96.2216365,545.005771 C96.2490117,544.989188 95.4912634,544.077978 94.5377579,542.980642 C89.166784,536.800235 83.9930801,529.027423 80.9052421,522.499646 C78.4660008,517.342863 77.0480192,513.094514 76.0619021,507.988692 C75.4245639,504.688431 75.3367073,503.57758 75.4533645,500.292967 C75.6247139,495.467861 76.1251763,493.691494 77.8478921,491.793522 L79.1324597,490.378331 L83.5793397,490.621248 C88.946619,490.914865 87.9315266,490.913622 93.5536481,490.632922 C97.9272465,490.414565 98.3095098,490.440982 99.8841495,491.070264 C102.226109,492.006356 104.127068,494.14818 106.935773,499.015058 C110.09023,504.480813 114.349964,511.316306 116.34457,514.113214 C119.023788,517.869564 125.181398,525.476529 125.543093,525.476529 C125.604069,525.476529 126.80977,524.770775 128.222427,523.908394 C129.635056,523.045706 132.296354,521.497221 134.136396,520.467153 C135.976438,519.437086 138.005575,518.283864 138.64559,517.904571 C140.380576,516.876957 154.93995,509.199349 155.154064,509.199349 C155.319362,509.199349 157.706966,508.061176 161.918844,505.974931 C165.372625,504.264298 181.486711,497.564553 183.737526,496.903639 C184.217537,496.76266 186.46681,496.030197 188.735924,495.275921 C191.005038,494.521629 193.426911,493.805443 194.117865,493.684744 C194.808819,493.563738 195.583528,493.349063 195.839388,493.207486 C196.356724,492.921248 202.663254,491.685724 207.592617,490.905032 C212.874833,490.068131 219.248186,490.716159 222.041908,492.373669 C224.241406,493.678914 224.762087,495.328124 224.139615,499.01874 C223.578554,502.345739 223.579165,505.138966 224.141796,508.965943 C224.96279,514.55025 224.022666,517.1589 220.251409,519.759865 C217.553456,521.620375 215.651944,522.535282 207.440439,525.923382 C204.324063,527.209284 201.381566,528.449117 200.901555,528.678841 C200.421544,528.908258 197.99967,529.874142 195.519614,530.825283 C193.039557,531.776117 190.748595,532.673198 190.428588,532.818457 C190.108581,532.963732 188.995828,533.429316 187.955804,533.853449 C186.91578,534.277261 182.530225,536.105525 178.210126,537.916286 C171.026544,540.926949 168.786172,541.89314 167.155328,542.683359 C166.83532,542.838144 165.85348,543.253672 164.97346,543.60655 C161.317783,545.071797 149.54451,550.468458 149.619363,550.644429 C149.663931,550.749159 152.449536,553.516276 155.809613,556.79322 C159.16969,560.070455 165.392087,566.42286 169.63713,570.910137 C178.724611,580.515524 180.673077,582.735354 184.345307,587.667644 C190.651808,596.137619 193.488789,602.813417 191.838628,605.300755 C191.380872,605.99054 191.244141,606.016634 189.002199,605.840357 C186.500876,605.643799 185.413695,605.272498 180.101079,602.800516 C176.786181,601.258168 160.496993,592.629111 159.823029,592.058491 C159.630326,591.895115 159.041222,591.521344 158.513908,591.227742 C156.006796,589.831896 145.011519,583.365557 144.754815,583.136447 C144.594811,582.993335 142.334512,581.536065 139.731951,579.897594 C135.469575,577.21402 125.77283,570.733553 125.408923,570.325082 C125.237399,570.132512 124.04927,569.242795 121.000211,567.022964 C119.775456,566.131099 118.579385,565.401689 118.342259,565.401689 C118.105163,565.401689 111.056129,568.991579 102.677784,573.379665 C89.7368044,580.157109 85.5374355,582.43623 77.1763422,587.220484 C76.6489992,587.522385 76.0598948,587.898595 75.8672213,588.056464 C75.6745187,588.214318 74.796855,588.736723 73.9168348,589.217356 C70.3399093,591.170614 53.2376703,602.164469 52.6799848,602.868996 C52.4505978,603.158916 49.7396411,604.800149 48.5026674,605.398106 C47.0084368,606.120444 45.7993618,606.100486 45.4173313,605.346823 Z M153.953484,421.03232 C153.307331,420.75929 151.072138,418.928571 149.671146,417.525039 C146.047674,413.894313 142.574867,410.697539 139.809247,408.446675 C138.689227,407.534851 137.707387,406.713307 137.627385,406.620865 C137.321225,406.267067 134.930014,404.363251 132.618339,402.632951 C131.293218,401.640974 130.04004,400.671102 129.833519,400.477305 C129.383356,400.055335 106.535851,384.202886 106.377651,384.202886 C106.317053,384.202886 104.19235,382.729033 101.656059,380.927492 C99.1197974,379.126258 96.2591646,377.095591 95.2991426,376.415025 C94.3391207,375.73446 92.3514097,374.236952 90.8819942,373.087105 C89.4125497,371.937581 88.1259747,370.996872 88.0229324,370.996872 C87.7455442,370.996872 69.0968262,379.711006 65.0439043,381.734601 C63.1238604,382.693106 61.094723,383.675265 60.5347102,383.91697 C59.9746973,384.158659 54.8691259,386.79526 49.1889958,389.776439 C40.5496125,394.310413 35.8148132,397.024698 25.1141172,403.576729 C24.5932326,403.895826 22.4331831,405.381338 20.3140073,406.877926 C15.8447268,410.034155 13.8132621,411.229148 12.9160779,411.229148 C11.4697029,411.229148 10.9644987,408.717557 11.7691716,405.52784 C12.9204125,400.963783 16.0254727,395.504777 21.5401008,388.34896 C21.9306261,387.842218 24.4822191,385.076021 27.2102816,382.202333 C32.5159449,376.613117 37.4894406,372.091446 45.2785644,365.775889 C48.0964908,363.490938 58.2419449,355.972733 62.2624879,353.189953 L66.0255705,350.585598 L64.3578086,348.736762 C59.0034751,342.801725 52.3726324,332.036674 49.5986634,324.775821 C46.9644794,317.880746 45.8727308,312.412843 46.0304944,306.904702 C46.1251002,303.601971 46.2124913,303.113975 47.0071277,301.448473 C48.4176036,298.49279 48.6391941,298.399121 54.8103318,298.151572 C58.0108706,298.023202 60.8447973,297.744957 61.9892889,297.446446 C63.0293128,297.175257 65.0175765,296.87397 66.4076592,296.777232 C69.3541994,296.572084 70.5616743,297.023846 72.9188483,299.214514 C74.0457978,300.261472 78.5714868,306.965205 78.5714868,307.587124 C78.5714868,307.925872 85.1796091,318.366303 86.7337101,320.482647 C88.9491209,323.499753 94.0364228,329.821139 95.1021927,330.880999 L95.9914058,331.765178 L97.6816845,330.748625 C98.6113349,330.189373 99.8956115,329.429251 100.535626,329.059791 C101.175641,328.690024 103.924795,327.102544 106.644857,325.531954 C109.364919,323.961041 113.685018,321.521919 116.245077,320.111652 C121.453022,317.242566 150.800015,301.757431 154.378715,299.990283 C155.645741,299.364682 158.056938,298.173079 159.736976,297.34233 C161.417015,296.511581 163.838888,295.31444 165.118918,294.68209 C171.172263,291.690464 180.783451,287.598127 184.028441,286.630096 C192.2046,284.191894 194.417858,284.979966 196.639261,291.121378 C197.686296,294.015944 198.896215,296.075773 201.136615,298.777479 C203.253987,301.330858 203.811382,302.562699 203.798174,304.659683 C203.772835,308.686914 199.813908,313.23899 190.355335,320.116561 C189.037953,321.074452 187.897999,321.858213 187.822128,321.858213 C187.746257,321.858213 186.665244,322.528654 185.419921,323.348035 C179.838615,327.021162 175.467984,329.414816 158.084836,338.318436 C151.917277,341.477442 122.011638,355.519421 120.238652,356.088508 C119.647569,356.278315 120.529102,357.298243 128.565883,365.721845 C137.868816,375.47249 141.215796,379.390988 146.056343,386.199144 C151.67829,394.105863 154.993013,400.632398 156.975022,407.697307 C157.912731,411.039662 158.293307,416.836174 157.702748,418.780842 C157.006964,421.071929 155.784566,421.805941 153.953484,421.03232 Z M544.764033,408.960796 C537.334772,407.707754 531.692461,404.74592 526.872714,399.56855 C523.209358,395.633469 520.576861,390.328328 519.400252,384.510003 C518.595143,380.527627 518.687945,372.745289 519.587166,368.847055 C522.027949,358.265661 527.25585,347.191959 534.317103,337.646462 C537.222479,333.718759 537.522849,333.369257 542.873081,327.691895 C548.369643,321.858827 548.814744,321.442072 554.223304,317.058296 C556.978858,314.825243 563.851598,309.880665 564.20026,309.880665 C564.277789,309.880665 565.20712,309.325401 566.26518,308.646676 C568.678181,307.099112 575.812162,303.434913 578.510261,302.357535 C582.836469,300.630012 585.415437,299.80049 591.491212,298.18259 C594.302622,297.433851 600.507855,296.628583 604.692678,296.469195 C612.263324,296.181116 618.431902,296.982074 626.007494,299.236927 C631.486601,300.867713 637.987404,304.78776 640.773505,308.141161 C643.408765,311.312761 643.221124,313.089113 639.84141,316.963707 C638.670038,318.306721 637.711616,319.578187 637.711616,319.78918 C637.711616,319.999851 638.107116,320.357346 638.590618,320.583372 C639.849847,321.171818 642.556091,323.870134 643.385492,325.36396 C645.743364,329.61168 646.050425,335.407901 644.224784,341.20656 C642.198992,347.641267 637.36819,356.077156 631.923847,362.688447 C628.215108,367.192016 622.560287,373.043815 617.81167,377.292762 C616.867793,378.137333 615.9517,378.970858 615.775987,379.144988 C615.600274,379.319118 614.605633,380.144958 613.565609,380.980002 C611.385632,382.73026 611.377922,382.736412 610.220078,383.751124 C608.712552,385.072032 599.296482,391.683016 596.256121,393.555201 C594.656085,394.540428 592.888772,395.650052 592.328759,396.021046 C591.400592,396.635586 582.753849,401.158178 579.964839,402.487692 C578.158689,403.348846 572.044076,405.672792 569.782788,406.357975 C567.554955,407.032711 566.788392,407.231723 563.528099,407.979864 C562.328072,408.255348 560.691671,408.631865 559.891652,408.816442 C557.676765,409.327786 547.515514,409.424846 544.764033,408.960796 Z M560.294425,378.333891 C564.091021,377.661302 567.788415,376.803216 570.219162,376.030209 C573.197121,375.08367 580.13968,372.545049 580.546671,372.254209 C580.706674,372.139661 581.361235,371.862336 582.00125,371.637828 C582.641264,371.413013 583.884929,370.883551 584.764949,370.460952 C585.644969,370.038367 587.346827,369.245693 588.546854,368.699342 C592.070717,367.09465 601.884759,361.565323 606.729089,358.454855 C609.456278,356.703661 616.546622,351.779057 617.485408,350.984236 C618.729509,349.930513 620.319509,348.631112 620.993852,348.116684 C623.400452,346.280749 627.77408,341.90219 630.655891,338.443431 C633.76738,334.709203 635.319852,331.24647 634.941953,328.884434 L634.741366,327.631392 L633.871674,328.745311 C632.176217,330.916619 632.091124,330.930134 620.835884,330.816814 L610.796818,330.715766 L605.636118,331.672737 C599.93286,332.730141 598.138637,333.235043 593.056048,335.211343 C590.001433,336.399264 583.252769,339.978093 579.964839,342.153712 C566.714209,350.921278 555.290383,363.790385 551.362148,374.375154 C550.02699,377.972729 549.993244,378.302565 550.945266,378.45459 C552.676651,378.731301 558.472565,378.656363 560.294425,378.333891 Z M382.09753,220.464583 C374.938762,219.397053 358.790669,211.231126 345.195769,201.803567 C336.94403,196.081364 327.110758,188.65468 323.287834,185.257345 L321.744002,183.88546 L319.796845,184.73833 C315.975841,186.412115 299.735033,194.695044 295.740091,197.007332 C286.331439,202.453421 284.567878,202.659198 284.307421,198.341126 C283.910641,191.762694 289.425706,182.096191 299.694712,171.371071 L303.664432,167.224997 L298.285952,161.389781 C292.887138,155.53246 286.320442,147.517637 282.128346,141.668906 C275.231374,132.046016 269.8572,121.045105 269.255702,115.3183 C268.806441,111.040774 270.076608,109.343962 275.425356,107.076208 C277.963771,106.000073 279.802184,104.950047 282.052272,103.292231 C285.609619,100.670679 286.847931,100.120017 289.184595,100.120017 C292.358486,100.120017 295.804441,102.647592 300.698226,108.565723 C302.781328,111.084693 315.492688,127.656396 317.567529,130.558034 C317.882707,130.998751 319.173645,132.657181 320.436249,134.243434 C321.698852,135.829702 323.204341,137.741495 323.78178,138.491783 C325.682885,140.962538 329.937994,146.187509 330.049036,146.187509 C330.108907,146.187509 331.774079,145.088025 333.749456,143.744091 C341.773552,138.285392 359.386377,127.364942 366.490627,123.443683 C368.378758,122.401634 371.167272,120.85407 372.687307,120.004897 C389.451822,110.639067 395.947214,108.157559 399.533624,109.748736 C400.882891,110.347307 402.596298,112.456578 404.323901,115.645989 C405.152371,117.175129 406.71869,119.511056 407.80462,120.836566 C412.140574,126.128805 412.551522,126.860961 412.529994,129.256777 C412.489237,133.792899 408.297839,138.885205 399.306099,145.322673 C393.958049,149.151798 382.258785,155.832198 373.560054,160.02434 C371.560009,160.988382 368.614487,162.427228 367.01445,163.222034 C365.414413,164.017162 361.15977,165.983629 357.559688,167.592617 C353.959606,169.201297 350.911274,170.617715 350.785657,170.739948 C350.66001,170.862488 351.838219,172.417416 353.403898,174.195317 C354.969549,175.973218 358.59913,180.086433 361.469596,183.335104 C371.148596,194.29027 377.935806,202.38985 381.42598,207.150157 C382.292909,208.332556 383.079138,209.369082 383.173162,209.453532 C383.603688,209.840189 385.2151,212.570765 386.163543,214.520956 C387.597205,217.468355 387.765849,218.65689 386.893538,219.664852 C386.079585,220.605255 384.645923,220.84449 382.09753,220.464583 Z" id="path2221"></path>
            </g>
        </g>
    </g>
</svg>